<svg version="1" xmlns="http://www.w3.org/2000/svg" width="1365.333" height="1365.333" viewBox="0 0 1024.000000 1024.000000"><path d="M485.8 16.5c-.2.1-5.5.6-11.8 1-6.3.3-12.8.8-14.5 1.1-1.6.2-5.5.6-8.5.9-3 .3-6.2.7-7 1-.8.2-3.5.7-6 1-45.6 6.1-97 22.1-141 43.9-16.7 8.3-19.9 10-35 18.9-20.6 12.1-54.3 35.7-64.6 45.2-.6.5-3.3 2.8-6 5-10.4 8.5-35.3 32.7-48.4 47-19.1 21-41.7 52-59 81-7 11.8-26 48.2-26 49.8 0 .3-1.3 3.4-2.9 6.9-1.5 3.5-4.3 10.1-6 14.8-1.8 4.7-3.7 9.4-4.1 10.5-7.4 17.4-20.6 69.4-23.6 92.5-.3 3-.8 6.6-1 8-.2 1.4-.6 5.2-.9 8.5-.4 3.3-.8 7.1-1.1 8.5-2.5 15.3-2.5 80.8.1 100.9.2 2 .7 5.6.9 8.1 1.2 11.9 6.4 41.6 10.1 57.2 10.2 43.9 29.7 91.5 55.3 134.8 15.2 25.6 38 56.8 58.7 79.9 5.8 6.6 29.9 30.7 37 37.1 24.9 22.4 58.3 46.6 87.7 63.4 10.7 6.1 43 22.6 44.2 22.6.3 0 3.1 1.2 6.3 2.6 14.6 6.6 28.1 11.6 46.8 17.4 11.9 3.7 29.6 8.6 35.4 9.6 1.2.3 5.1 1.1 8.5 1.9 7.8 1.8 9.9 2.2 22.1 4.1 13.3 2 15.2 2.3 21 2.9 2.8.3 6.4.8 8 1 8 1.2 27.5 2 52 2 28.4 0 43.4-.8 59-2.9 1.7-.3 5.3-.8 8-1.1 4.3-.6 9.4-1.4 26-4.1 25.3-4.1 72-18.4 98.1-29.9 1.9-.8 5.1-2.2 7.2-3.1 8.1-3.5 37.1-18.3 43.6-22.2 3.7-2.3 7-4.2 7.1-4.2.8 0 20.6-12.6 29.5-18.8 9.4-6.4 31.8-23.3 36.9-27.7 15.6-13.4 21.6-18.9 33.6-31 16-16 19.7-20 28.4-30.5 3.4-4.1 7-8.4 8-9.5 1-1.1 6-7.6 11.1-14.5 40.3-54.2 68.8-113.4 84.4-175.5 3-12.1 7.3-33.4 8.7-43.2.5-3.9 1.2-8.2 1.4-9.5.3-1.3.7-5.1 1.1-8.6.3-3.5.7-7.1.9-8.1 2.6-13.7 2.6-82 0-101.6-.2-1.7-.7-5.4-1-8.4-1-9.8-3.6-26.4-6.1-39.1-21.3-106.1-78.7-203.5-163.9-278-1.5-1.3-24.4-19.5-30.1-23.9-.5-.5-3.9-2.8-7.5-5.2-3.5-2.4-6.8-4.7-7.4-5.2-2.7-2.1-15.4-10.2-28-17.7-23.9-14.2-58.6-30.8-81-38.6-21.7-7.6-47.4-15.2-57.3-17-1.3-.3-5.4-1.2-9.1-2-3.6-.9-7.7-1.7-9.1-1.9-3.7-.5-9.3-1.5-11-2-.8-.2-3.6-.6-6.2-.9-8.7-1.1-14.3-1.8-16.3-2.2-1.1-.2-4.9-.7-8.5-1-3.6-.3-8.3-.7-10.5-1-4.2-.6-66.1-1.4-66.7-.9zm45.7 163.8c2.2.3 6.5.9 9.5 1.2 31.6 3.7 67.9 19.8 95.5 42.4 38.1 31.1 64 76.5 70.9 124.1 1.6 11.3 1.9 22.6 2 69.5l.1 52 2.5.2c1.4.1 11.1.4 21.5.7 10.5.2 19.7.6 20.5.8 17.1 4.7 28.1 12.2 37.5 25.3 4 5.5 8 14 9.1 19 .3 1.1.9 4 1.4 6.5.5 2.6.9 59.6.9 136 0 124.3 0 131.9-1.8 138.5-2.4 9.3-4.2 13.2-9 20.3-5.3 7.8-14.6 16.2-22.9 20.5-13.5 7.1 6 6.6-257.2 6.6-227.5.1-237.8 0-244.6-1.8-18.1-4.7-35.2-19.7-41.7-36.5-2-5.3-2.1-5.8-3.7-14-.6-3.1-1-54.6-1-135.5 0-140.5-.1-136.2 5.1-148.6 8.4-19.8 29.3-35.2 50.3-37 2.2-.2 11.8-.4 21.1-.4l17.1-.1v-49.3c0-59 .5-67.6 4.5-86.2 6.7-30.8 20.9-59.2 42.9-86 4.6-5.5 18.5-18.9 26-25.1 21.4-17.5 48.5-31.2 74.9-37.9 11.5-2.9 14.2-3.4 27.6-4.9 10.1-1.2 33.7-1.3 41-.3z"/><path d="M502 283.5c-.8.2-4.9.9-9 1.5-17.1 2.8-32.2 11-46.9 25.3-12.5 12.3-21 27.3-25.1 44.7-2.2 9.2-2.3 11.2-2.4 62l-.1 52.5 93.5.3 93.6.2-.2-51.7c-.1-35.2-.5-53.9-1.3-58.3-3.6-19.6-12.3-36.2-26.2-49.7-15.2-14.7-28.8-22-48.4-25.8-3.4-.6-25.2-1.4-27.5-1z"/></svg>